<mxfile host="app.diagrams.net" modified="2023-05-07T17:56:50.596Z" agent="Mozilla/5.0 (Windows NT 10.0; Win64; x64; rv:109.0) Gecko/20100101 Firefox/112.0" etag="jgouxtrzdryAzol806D6" version="21.2.9" type="device">
  <diagram id="R2lEEEUBdFMjLlhIrx00" name="Page-1">
    <mxGraphModel dx="1235" dy="679" grid="1" gridSize="10" guides="1" tooltips="1" connect="1" arrows="1" fold="1" page="1" pageScale="1" pageWidth="850" pageHeight="1100" math="0" shadow="0" extFonts="Permanent Marker^https://fonts.googleapis.com/css?family=Permanent+Marker">
      <root>
        <mxCell id="0" />
        <mxCell id="1" parent="0" />
        <mxCell id="C-vyLk0tnHw3VtMMgP7b-23" value="users" style="shape=table;startSize=30;container=1;collapsible=1;childLayout=tableLayout;fixedRows=1;rowLines=0;fontStyle=1;align=center;resizeLast=1;rounded=1;fillColor=#d5e8d4;strokeColor=#82b366;swimlaneLine=1;swimlaneFillColor=default;" parent="1" vertex="1">
          <mxGeometry x="600" y="510" width="220" height="270" as="geometry" />
        </mxCell>
        <mxCell id="C-vyLk0tnHw3VtMMgP7b-27" value="" style="shape=partialRectangle;collapsible=0;dropTarget=0;pointerEvents=0;fillColor=none;points=[[0,0.5],[1,0.5]];portConstraint=eastwest;top=0;left=0;right=0;bottom=0;" parent="C-vyLk0tnHw3VtMMgP7b-23" vertex="1">
          <mxGeometry y="30" width="220" height="30" as="geometry" />
        </mxCell>
        <mxCell id="C-vyLk0tnHw3VtMMgP7b-29" value="id : int" style="shape=partialRectangle;overflow=hidden;connectable=0;fillColor=none;top=0;left=0;bottom=0;right=0;align=left;spacingLeft=6;" parent="C-vyLk0tnHw3VtMMgP7b-27" vertex="1">
          <mxGeometry width="220" height="30" as="geometry">
            <mxRectangle width="220" height="30" as="alternateBounds" />
          </mxGeometry>
        </mxCell>
        <mxCell id="XOmV6FHvG9RzrbjpGp2Q-1" style="shape=partialRectangle;collapsible=0;dropTarget=0;pointerEvents=0;fillColor=none;points=[[0,0.5],[1,0.5]];portConstraint=eastwest;top=0;left=0;right=0;bottom=0;" parent="C-vyLk0tnHw3VtMMgP7b-23" vertex="1">
          <mxGeometry y="60" width="220" height="30" as="geometry" />
        </mxCell>
        <mxCell id="XOmV6FHvG9RzrbjpGp2Q-2" value="firstName : varchar" style="shape=partialRectangle;overflow=hidden;connectable=0;fillColor=none;top=0;left=0;bottom=0;right=0;align=left;spacingLeft=6;" parent="XOmV6FHvG9RzrbjpGp2Q-1" vertex="1">
          <mxGeometry width="220" height="30" as="geometry">
            <mxRectangle width="220" height="30" as="alternateBounds" />
          </mxGeometry>
        </mxCell>
        <mxCell id="XOmV6FHvG9RzrbjpGp2Q-7" style="shape=partialRectangle;collapsible=0;dropTarget=0;pointerEvents=0;fillColor=none;points=[[0,0.5],[1,0.5]];portConstraint=eastwest;top=0;left=0;right=0;bottom=0;" parent="C-vyLk0tnHw3VtMMgP7b-23" vertex="1">
          <mxGeometry y="90" width="220" height="30" as="geometry" />
        </mxCell>
        <mxCell id="XOmV6FHvG9RzrbjpGp2Q-8" value="lastName : varchar" style="shape=partialRectangle;overflow=hidden;connectable=0;fillColor=none;top=0;left=0;bottom=0;right=0;align=left;spacingLeft=6;" parent="XOmV6FHvG9RzrbjpGp2Q-7" vertex="1">
          <mxGeometry width="220" height="30" as="geometry">
            <mxRectangle width="220" height="30" as="alternateBounds" />
          </mxGeometry>
        </mxCell>
        <mxCell id="XOmV6FHvG9RzrbjpGp2Q-5" style="shape=partialRectangle;collapsible=0;dropTarget=0;pointerEvents=0;fillColor=none;points=[[0,0.5],[1,0.5]];portConstraint=eastwest;top=0;left=0;right=0;bottom=0;" parent="C-vyLk0tnHw3VtMMgP7b-23" vertex="1">
          <mxGeometry y="120" width="220" height="30" as="geometry" />
        </mxCell>
        <mxCell id="XOmV6FHvG9RzrbjpGp2Q-6" value="email : varchar" style="shape=partialRectangle;overflow=hidden;connectable=0;fillColor=none;top=0;left=0;bottom=0;right=0;align=left;spacingLeft=6;" parent="XOmV6FHvG9RzrbjpGp2Q-5" vertex="1">
          <mxGeometry width="220" height="30" as="geometry">
            <mxRectangle width="220" height="30" as="alternateBounds" />
          </mxGeometry>
        </mxCell>
        <mxCell id="XOmV6FHvG9RzrbjpGp2Q-3" style="shape=partialRectangle;collapsible=0;dropTarget=0;pointerEvents=0;fillColor=none;points=[[0,0.5],[1,0.5]];portConstraint=eastwest;top=0;left=0;right=0;bottom=0;" parent="C-vyLk0tnHw3VtMMgP7b-23" vertex="1">
          <mxGeometry y="150" width="220" height="30" as="geometry" />
        </mxCell>
        <mxCell id="XOmV6FHvG9RzrbjpGp2Q-4" value="password : varchar" style="shape=partialRectangle;overflow=hidden;connectable=0;fillColor=none;top=0;left=0;bottom=0;right=0;align=left;spacingLeft=6;" parent="XOmV6FHvG9RzrbjpGp2Q-3" vertex="1">
          <mxGeometry width="220" height="30" as="geometry">
            <mxRectangle width="220" height="30" as="alternateBounds" />
          </mxGeometry>
        </mxCell>
        <mxCell id="WS94sjK1EqQb1p9_KVSN-3" style="shape=partialRectangle;collapsible=0;dropTarget=0;pointerEvents=0;fillColor=none;points=[[0,0.5],[1,0.5]];portConstraint=eastwest;top=0;left=0;right=0;bottom=0;" parent="C-vyLk0tnHw3VtMMgP7b-23" vertex="1">
          <mxGeometry y="180" width="220" height="30" as="geometry" />
        </mxCell>
        <mxCell id="WS94sjK1EqQb1p9_KVSN-4" value="phoneNumber : varchar" style="shape=partialRectangle;overflow=hidden;connectable=0;fillColor=none;top=0;left=0;bottom=0;right=0;align=left;spacingLeft=6;" parent="WS94sjK1EqQb1p9_KVSN-3" vertex="1">
          <mxGeometry width="220" height="30" as="geometry">
            <mxRectangle width="220" height="30" as="alternateBounds" />
          </mxGeometry>
        </mxCell>
        <mxCell id="WS94sjK1EqQb1p9_KVSN-32" style="shape=partialRectangle;collapsible=0;dropTarget=0;pointerEvents=0;fillColor=none;points=[[0,0.5],[1,0.5]];portConstraint=eastwest;top=0;left=0;right=0;bottom=0;" parent="C-vyLk0tnHw3VtMMgP7b-23" vertex="1">
          <mxGeometry y="210" width="220" height="30" as="geometry" />
        </mxCell>
        <mxCell id="WS94sjK1EqQb1p9_KVSN-33" value="createdAt : timestamp" style="shape=partialRectangle;overflow=hidden;connectable=0;fillColor=none;top=0;left=0;bottom=0;right=0;align=left;spacingLeft=6;" parent="WS94sjK1EqQb1p9_KVSN-32" vertex="1">
          <mxGeometry width="220" height="30" as="geometry">
            <mxRectangle width="220" height="30" as="alternateBounds" />
          </mxGeometry>
        </mxCell>
        <mxCell id="WS94sjK1EqQb1p9_KVSN-30" style="shape=partialRectangle;collapsible=0;dropTarget=0;pointerEvents=0;fillColor=none;points=[[0,0.5],[1,0.5]];portConstraint=eastwest;top=0;left=0;right=0;bottom=0;" parent="C-vyLk0tnHw3VtMMgP7b-23" vertex="1">
          <mxGeometry y="240" width="220" height="30" as="geometry" />
        </mxCell>
        <mxCell id="WS94sjK1EqQb1p9_KVSN-31" value="updatedAt : timestamp" style="shape=partialRectangle;overflow=hidden;connectable=0;fillColor=none;top=0;left=0;bottom=0;right=0;align=left;spacingLeft=6;" parent="WS94sjK1EqQb1p9_KVSN-30" vertex="1">
          <mxGeometry width="220" height="30" as="geometry">
            <mxRectangle width="220" height="30" as="alternateBounds" />
          </mxGeometry>
        </mxCell>
        <mxCell id="XOmV6FHvG9RzrbjpGp2Q-9" value="transcripts" style="shape=table;startSize=30;container=1;collapsible=1;childLayout=tableLayout;fixedRows=1;rowLines=0;fontStyle=1;align=center;resizeLast=1;rounded=1;fillColor=#d5e8d4;strokeColor=#82b366;swimlaneLine=1;swimlaneFillColor=default;" parent="1" vertex="1">
          <mxGeometry x="600" y="120" width="220" height="220" as="geometry" />
        </mxCell>
        <mxCell id="XOmV6FHvG9RzrbjpGp2Q-10" value="" style="shape=partialRectangle;collapsible=0;dropTarget=0;pointerEvents=0;fillColor=none;points=[[0,0.5],[1,0.5]];portConstraint=eastwest;top=0;left=0;right=0;bottom=0;" parent="XOmV6FHvG9RzrbjpGp2Q-9" vertex="1">
          <mxGeometry y="30" width="220" height="30" as="geometry" />
        </mxCell>
        <mxCell id="XOmV6FHvG9RzrbjpGp2Q-11" value="id : int" style="shape=partialRectangle;overflow=hidden;connectable=0;fillColor=none;top=0;left=0;bottom=0;right=0;align=left;spacingLeft=6;" parent="XOmV6FHvG9RzrbjpGp2Q-10" vertex="1">
          <mxGeometry width="220" height="30" as="geometry">
            <mxRectangle width="220" height="30" as="alternateBounds" />
          </mxGeometry>
        </mxCell>
        <mxCell id="WS94sjK1EqQb1p9_KVSN-48" style="shape=partialRectangle;collapsible=0;dropTarget=0;pointerEvents=0;fillColor=none;points=[[0,0.5],[1,0.5]];portConstraint=eastwest;top=0;left=0;right=0;bottom=0;" parent="XOmV6FHvG9RzrbjpGp2Q-9" vertex="1">
          <mxGeometry y="60" width="220" height="30" as="geometry" />
        </mxCell>
        <mxCell id="WS94sjK1EqQb1p9_KVSN-49" value="name : varchar" style="shape=partialRectangle;overflow=hidden;connectable=0;fillColor=none;top=0;left=0;bottom=0;right=0;align=left;spacingLeft=6;" parent="WS94sjK1EqQb1p9_KVSN-48" vertex="1">
          <mxGeometry width="220" height="30" as="geometry">
            <mxRectangle width="220" height="30" as="alternateBounds" />
          </mxGeometry>
        </mxCell>
        <mxCell id="XOmV6FHvG9RzrbjpGp2Q-12" style="shape=partialRectangle;collapsible=0;dropTarget=0;pointerEvents=0;fillColor=none;points=[[0,0.5],[1,0.5]];portConstraint=eastwest;top=0;left=0;right=0;bottom=0;" parent="XOmV6FHvG9RzrbjpGp2Q-9" vertex="1">
          <mxGeometry y="90" width="220" height="30" as="geometry" />
        </mxCell>
        <mxCell id="XOmV6FHvG9RzrbjpGp2Q-13" value="occurenceDate : timestamp" style="shape=partialRectangle;overflow=hidden;connectable=0;fillColor=none;top=0;left=0;bottom=0;right=0;align=left;spacingLeft=6;" parent="XOmV6FHvG9RzrbjpGp2Q-12" vertex="1">
          <mxGeometry width="220" height="30" as="geometry">
            <mxRectangle width="220" height="30" as="alternateBounds" />
          </mxGeometry>
        </mxCell>
        <mxCell id="WS94sjK1EqQb1p9_KVSN-11" style="shape=partialRectangle;collapsible=0;dropTarget=0;pointerEvents=0;fillColor=none;points=[[0,0.5],[1,0.5]];portConstraint=eastwest;top=0;left=0;right=0;bottom=0;" parent="XOmV6FHvG9RzrbjpGp2Q-9" vertex="1">
          <mxGeometry y="120" width="220" height="30" as="geometry" />
        </mxCell>
        <mxCell id="WS94sjK1EqQb1p9_KVSN-12" value="environmentId : int" style="shape=partialRectangle;overflow=hidden;connectable=0;fillColor=#eeeeee;top=0;left=0;bottom=0;right=0;align=left;spacingLeft=6;strokeColor=#36393d;" parent="WS94sjK1EqQb1p9_KVSN-11" vertex="1">
          <mxGeometry width="220" height="30" as="geometry">
            <mxRectangle width="220" height="30" as="alternateBounds" />
          </mxGeometry>
        </mxCell>
        <mxCell id="WS94sjK1EqQb1p9_KVSN-19" style="shape=partialRectangle;collapsible=0;dropTarget=0;pointerEvents=0;fillColor=none;points=[[0,0.5],[1,0.5]];portConstraint=eastwest;top=0;left=0;right=0;bottom=0;" parent="XOmV6FHvG9RzrbjpGp2Q-9" vertex="1">
          <mxGeometry y="150" width="220" height="30" as="geometry" />
        </mxCell>
        <mxCell id="WS94sjK1EqQb1p9_KVSN-20" value="createdAt : timestamp" style="shape=partialRectangle;overflow=hidden;connectable=0;fillColor=none;top=0;left=0;bottom=0;right=0;align=left;spacingLeft=6;" parent="WS94sjK1EqQb1p9_KVSN-19" vertex="1">
          <mxGeometry width="220" height="30" as="geometry">
            <mxRectangle width="220" height="30" as="alternateBounds" />
          </mxGeometry>
        </mxCell>
        <mxCell id="WS94sjK1EqQb1p9_KVSN-21" style="shape=partialRectangle;collapsible=0;dropTarget=0;pointerEvents=0;fillColor=none;points=[[0,0.5],[1,0.5]];portConstraint=eastwest;top=0;left=0;right=0;bottom=0;" parent="XOmV6FHvG9RzrbjpGp2Q-9" vertex="1">
          <mxGeometry y="180" width="220" height="30" as="geometry" />
        </mxCell>
        <mxCell id="WS94sjK1EqQb1p9_KVSN-22" value="updatedAt : timestamp" style="shape=partialRectangle;overflow=hidden;connectable=0;fillColor=none;top=0;left=0;bottom=0;right=0;align=left;spacingLeft=6;" parent="WS94sjK1EqQb1p9_KVSN-21" vertex="1">
          <mxGeometry width="220" height="30" as="geometry">
            <mxRectangle width="220" height="30" as="alternateBounds" />
          </mxGeometry>
        </mxCell>
        <mxCell id="XOmV6FHvG9RzrbjpGp2Q-66" style="edgeStyle=orthogonalEdgeStyle;rounded=0;orthogonalLoop=1;jettySize=auto;html=1;entryX=1;entryY=0.5;entryDx=0;entryDy=0;endArrow=none;endFill=0;dashed=1;startArrow=block;startFill=1;exitX=0;exitY=0.5;exitDx=0;exitDy=0;" parent="1" target="XOmV6FHvG9RzrbjpGp2Q-10" edge="1">
          <mxGeometry relative="1" as="geometry">
            <Array as="points">
              <mxPoint x="390" y="755" />
              <mxPoint x="390" y="480" />
              <mxPoint x="720" y="480" />
              <mxPoint x="720" y="115" />
            </Array>
          </mxGeometry>
        </mxCell>
        <mxCell id="WS94sjK1EqQb1p9_KVSN-5" style="rounded=0;orthogonalLoop=1;jettySize=auto;html=1;dashed=1;startArrow=block;startFill=1;endArrow=none;endFill=0;exitX=1;exitY=0.5;exitDx=0;exitDy=0;edgeStyle=orthogonalEdgeStyle;entryX=0;entryY=0.5;entryDx=0;entryDy=0;" parent="1" target="C-vyLk0tnHw3VtMMgP7b-27" edge="1">
          <mxGeometry relative="1" as="geometry">
            <mxPoint x="780" y="640" as="targetPoint" />
            <Array as="points">
              <mxPoint x="760" y="695" />
              <mxPoint x="760" y="485" />
            </Array>
          </mxGeometry>
        </mxCell>
        <mxCell id="XOmV6FHvG9RzrbjpGp2Q-31" value="environnements" style="shape=table;startSize=30;container=1;collapsible=1;childLayout=tableLayout;fixedRows=1;rowLines=0;fontStyle=1;align=center;resizeLast=1;rounded=1;fillColor=#d5e8d4;strokeColor=#82b366;swimlaneLine=1;swimlaneFillColor=default;" parent="1" vertex="1">
          <mxGeometry x="340" y="210" width="220" height="190" as="geometry" />
        </mxCell>
        <mxCell id="XOmV6FHvG9RzrbjpGp2Q-32" value="" style="shape=partialRectangle;collapsible=0;dropTarget=0;pointerEvents=0;fillColor=none;points=[[0,0.5],[1,0.5]];portConstraint=eastwest;top=0;left=0;right=0;bottom=0;" parent="XOmV6FHvG9RzrbjpGp2Q-31" vertex="1">
          <mxGeometry y="30" width="220" height="30" as="geometry" />
        </mxCell>
        <mxCell id="XOmV6FHvG9RzrbjpGp2Q-33" value="id : int" style="shape=partialRectangle;overflow=hidden;connectable=0;fillColor=none;top=0;left=0;bottom=0;right=0;align=left;spacingLeft=6;" parent="XOmV6FHvG9RzrbjpGp2Q-32" vertex="1">
          <mxGeometry width="220" height="30" as="geometry">
            <mxRectangle width="220" height="30" as="alternateBounds" />
          </mxGeometry>
        </mxCell>
        <mxCell id="WS94sjK1EqQb1p9_KVSN-24" style="shape=partialRectangle;collapsible=0;dropTarget=0;pointerEvents=0;fillColor=none;points=[[0,0.5],[1,0.5]];portConstraint=eastwest;top=0;left=0;right=0;bottom=0;" parent="XOmV6FHvG9RzrbjpGp2Q-31" vertex="1">
          <mxGeometry y="60" width="220" height="30" as="geometry" />
        </mxCell>
        <mxCell id="WS94sjK1EqQb1p9_KVSN-25" value="name : varchar" style="shape=partialRectangle;overflow=hidden;connectable=0;fillColor=none;top=0;left=0;bottom=0;right=0;align=left;spacingLeft=6;" parent="WS94sjK1EqQb1p9_KVSN-24" vertex="1">
          <mxGeometry width="220" height="30" as="geometry">
            <mxRectangle width="220" height="30" as="alternateBounds" />
          </mxGeometry>
        </mxCell>
        <mxCell id="WS94sjK1EqQb1p9_KVSN-38" style="shape=partialRectangle;collapsible=0;dropTarget=0;pointerEvents=0;fillColor=none;points=[[0,0.5],[1,0.5]];portConstraint=eastwest;top=0;left=0;right=0;bottom=0;" parent="XOmV6FHvG9RzrbjpGp2Q-31" vertex="1">
          <mxGeometry y="90" width="220" height="30" as="geometry" />
        </mxCell>
        <mxCell id="WS94sjK1EqQb1p9_KVSN-39" value="description : varchar" style="shape=partialRectangle;overflow=hidden;connectable=0;fillColor=none;top=0;left=0;bottom=0;right=0;align=left;spacingLeft=6;" parent="WS94sjK1EqQb1p9_KVSN-38" vertex="1">
          <mxGeometry width="220" height="30" as="geometry">
            <mxRectangle width="220" height="30" as="alternateBounds" />
          </mxGeometry>
        </mxCell>
        <mxCell id="WS94sjK1EqQb1p9_KVSN-26" style="shape=partialRectangle;collapsible=0;dropTarget=0;pointerEvents=0;fillColor=none;points=[[0,0.5],[1,0.5]];portConstraint=eastwest;top=0;left=0;right=0;bottom=0;" parent="XOmV6FHvG9RzrbjpGp2Q-31" vertex="1">
          <mxGeometry y="120" width="220" height="30" as="geometry" />
        </mxCell>
        <mxCell id="WS94sjK1EqQb1p9_KVSN-27" value="createdAt : timestamp" style="shape=partialRectangle;overflow=hidden;connectable=0;fillColor=none;top=0;left=0;bottom=0;right=0;align=left;spacingLeft=6;" parent="WS94sjK1EqQb1p9_KVSN-26" vertex="1">
          <mxGeometry width="220" height="30" as="geometry">
            <mxRectangle width="220" height="30" as="alternateBounds" />
          </mxGeometry>
        </mxCell>
        <mxCell id="WS94sjK1EqQb1p9_KVSN-28" style="shape=partialRectangle;collapsible=0;dropTarget=0;pointerEvents=0;fillColor=none;points=[[0,0.5],[1,0.5]];portConstraint=eastwest;top=0;left=0;right=0;bottom=0;" parent="XOmV6FHvG9RzrbjpGp2Q-31" vertex="1">
          <mxGeometry y="150" width="220" height="30" as="geometry" />
        </mxCell>
        <mxCell id="WS94sjK1EqQb1p9_KVSN-29" value="updatedAt : timestamp" style="shape=partialRectangle;overflow=hidden;connectable=0;fillColor=none;top=0;left=0;bottom=0;right=0;align=left;spacingLeft=6;" parent="WS94sjK1EqQb1p9_KVSN-28" vertex="1">
          <mxGeometry width="220" height="30" as="geometry">
            <mxRectangle width="220" height="30" as="alternateBounds" />
          </mxGeometry>
        </mxCell>
        <mxCell id="WS94sjK1EqQb1p9_KVSN-16" value="&lt;div&gt;&lt;font style=&quot;font-size: 23px;&quot;&gt;PVonWeb&lt;/font&gt;&lt;/div&gt;" style="text;html=1;strokeColor=none;fillColor=none;align=center;verticalAlign=middle;whiteSpace=wrap;rounded=0;" parent="1" vertex="1">
          <mxGeometry x="410" y="20" width="60" height="30" as="geometry" />
        </mxCell>
        <mxCell id="ZG2WCgY98QADGsXBixCX-1" value="logs" style="shape=table;startSize=40;container=1;collapsible=1;childLayout=tableLayout;fixedRows=1;rowLines=0;fontStyle=1;align=center;resizeLast=1;rounded=1;fillColor=#d5e8d4;strokeColor=#82b366;swimlaneLine=1;swimlaneFillColor=default;" parent="1" vertex="1">
          <mxGeometry x="50" y="320" width="240" height="340" as="geometry" />
        </mxCell>
        <mxCell id="ZG2WCgY98QADGsXBixCX-2" value="" style="shape=partialRectangle;collapsible=0;dropTarget=0;pointerEvents=0;fillColor=none;points=[[0,0.5],[1,0.5]];portConstraint=eastwest;top=0;left=0;right=0;bottom=0;" parent="ZG2WCgY98QADGsXBixCX-1" vertex="1">
          <mxGeometry y="40" width="240" height="30" as="geometry" />
        </mxCell>
        <mxCell id="ZG2WCgY98QADGsXBixCX-3" value="id : int" style="shape=partialRectangle;overflow=hidden;connectable=0;fillColor=none;top=0;left=0;bottom=0;right=0;align=left;spacingLeft=6;" parent="ZG2WCgY98QADGsXBixCX-2" vertex="1">
          <mxGeometry width="240" height="30" as="geometry">
            <mxRectangle width="240" height="30" as="alternateBounds" />
          </mxGeometry>
        </mxCell>
        <mxCell id="AtBy07pKtBP1QmbtxYR5-21" style="shape=partialRectangle;collapsible=0;dropTarget=0;pointerEvents=0;fillColor=none;points=[[0,0.5],[1,0.5]];portConstraint=eastwest;top=0;left=0;right=0;bottom=0;" parent="ZG2WCgY98QADGsXBixCX-1" vertex="1">
          <mxGeometry y="70" width="240" height="30" as="geometry" />
        </mxCell>
        <mxCell id="AtBy07pKtBP1QmbtxYR5-22" value="environmentId: int" style="shape=partialRectangle;overflow=hidden;connectable=0;fillColor=none;top=0;left=0;bottom=0;right=0;align=left;spacingLeft=6;" parent="AtBy07pKtBP1QmbtxYR5-21" vertex="1">
          <mxGeometry width="240" height="30" as="geometry">
            <mxRectangle width="240" height="30" as="alternateBounds" />
          </mxGeometry>
        </mxCell>
        <mxCell id="ZG2WCgY98QADGsXBixCX-6" style="shape=partialRectangle;collapsible=0;dropTarget=0;pointerEvents=0;fillColor=none;points=[[0,0.5],[1,0.5]];portConstraint=eastwest;top=0;left=0;right=0;bottom=0;" parent="ZG2WCgY98QADGsXBixCX-1" vertex="1">
          <mxGeometry y="100" width="240" height="30" as="geometry" />
        </mxCell>
        <mxCell id="ZG2WCgY98QADGsXBixCX-7" value="userId: int" style="shape=partialRectangle;overflow=hidden;connectable=0;fillColor=none;top=0;left=0;bottom=0;right=0;align=left;spacingLeft=6;" parent="ZG2WCgY98QADGsXBixCX-6" vertex="1">
          <mxGeometry width="240" height="30" as="geometry">
            <mxRectangle width="240" height="30" as="alternateBounds" />
          </mxGeometry>
        </mxCell>
        <mxCell id="ZG2WCgY98QADGsXBixCX-4" style="shape=partialRectangle;collapsible=0;dropTarget=0;pointerEvents=0;fillColor=none;points=[[0,0.5],[1,0.5]];portConstraint=eastwest;top=0;left=0;right=0;bottom=0;" parent="ZG2WCgY98QADGsXBixCX-1" vertex="1">
          <mxGeometry y="130" width="240" height="30" as="geometry" />
        </mxCell>
        <mxCell id="ZG2WCgY98QADGsXBixCX-5" value="action : enum(&#39;create&#39;, &#39;update&#39;, &#39;delete&#39;)" style="shape=partialRectangle;overflow=hidden;connectable=0;fillColor=none;top=0;left=0;bottom=0;right=0;align=left;spacingLeft=6;" parent="ZG2WCgY98QADGsXBixCX-4" vertex="1">
          <mxGeometry width="240" height="30" as="geometry">
            <mxRectangle width="240" height="30" as="alternateBounds" />
          </mxGeometry>
        </mxCell>
        <mxCell id="ZG2WCgY98QADGsXBixCX-28" style="shape=partialRectangle;collapsible=0;dropTarget=0;pointerEvents=0;fillColor=none;points=[[0,0.5],[1,0.5]];portConstraint=eastwest;top=0;left=0;right=0;bottom=0;" parent="ZG2WCgY98QADGsXBixCX-1" vertex="1">
          <mxGeometry y="160" width="240" height="30" as="geometry" />
        </mxCell>
        <mxCell id="ZG2WCgY98QADGsXBixCX-29" value="timestamp: timestamp" style="shape=partialRectangle;overflow=hidden;connectable=0;fillColor=none;top=0;left=0;bottom=0;right=0;align=left;spacingLeft=6;" parent="ZG2WCgY98QADGsXBixCX-28" vertex="1">
          <mxGeometry width="240" height="30" as="geometry">
            <mxRectangle width="240" height="30" as="alternateBounds" />
          </mxGeometry>
        </mxCell>
        <mxCell id="-ggtBQ1dRWR95-5K9rOF-1" style="shape=partialRectangle;collapsible=0;dropTarget=0;pointerEvents=0;fillColor=none;points=[[0,0.5],[1,0.5]];portConstraint=eastwest;top=0;left=0;right=0;bottom=0;" parent="ZG2WCgY98QADGsXBixCX-1" vertex="1">
          <mxGeometry y="190" width="240" height="30" as="geometry" />
        </mxCell>
        <mxCell id="-ggtBQ1dRWR95-5K9rOF-2" value="targetEnvironmentId: int" style="shape=partialRectangle;overflow=hidden;connectable=0;fillColor=none;top=0;left=0;bottom=0;right=0;align=left;spacingLeft=6;" parent="-ggtBQ1dRWR95-5K9rOF-1" vertex="1">
          <mxGeometry width="240" height="30" as="geometry">
            <mxRectangle width="240" height="30" as="alternateBounds" />
          </mxGeometry>
        </mxCell>
        <mxCell id="-ggtBQ1dRWR95-5K9rOF-3" style="shape=partialRectangle;collapsible=0;dropTarget=0;pointerEvents=0;fillColor=none;points=[[0,0.5],[1,0.5]];portConstraint=eastwest;top=0;left=0;right=0;bottom=0;" parent="ZG2WCgY98QADGsXBixCX-1" vertex="1">
          <mxGeometry y="220" width="240" height="30" as="geometry" />
        </mxCell>
        <mxCell id="-ggtBQ1dRWR95-5K9rOF-4" value="targetTranscriptId: int" style="shape=partialRectangle;overflow=hidden;connectable=0;fillColor=none;top=0;left=0;bottom=0;right=0;align=left;spacingLeft=6;" parent="-ggtBQ1dRWR95-5K9rOF-3" vertex="1">
          <mxGeometry width="240" height="30" as="geometry">
            <mxRectangle width="240" height="30" as="alternateBounds" />
          </mxGeometry>
        </mxCell>
        <mxCell id="-ggtBQ1dRWR95-5K9rOF-5" style="shape=partialRectangle;collapsible=0;dropTarget=0;pointerEvents=0;fillColor=none;points=[[0,0.5],[1,0.5]];portConstraint=eastwest;top=0;left=0;right=0;bottom=0;" parent="ZG2WCgY98QADGsXBixCX-1" vertex="1">
          <mxGeometry y="250" width="240" height="30" as="geometry" />
        </mxCell>
        <mxCell id="-ggtBQ1dRWR95-5K9rOF-6" value="targetUserId: int" style="shape=partialRectangle;overflow=hidden;connectable=0;fillColor=none;top=0;left=0;bottom=0;right=0;align=left;spacingLeft=6;" parent="-ggtBQ1dRWR95-5K9rOF-5" vertex="1">
          <mxGeometry width="240" height="30" as="geometry">
            <mxRectangle width="240" height="30" as="alternateBounds" />
          </mxGeometry>
        </mxCell>
        <mxCell id="ZG2WCgY98QADGsXBixCX-20" style="shape=partialRectangle;collapsible=0;dropTarget=0;pointerEvents=0;fillColor=none;points=[[0,0.5],[1,0.5]];portConstraint=eastwest;top=0;left=0;right=0;bottom=0;" parent="ZG2WCgY98QADGsXBixCX-1" vertex="1">
          <mxGeometry y="280" width="240" height="30" as="geometry" />
        </mxCell>
        <mxCell id="ZG2WCgY98QADGsXBixCX-21" value="createdAt : timestamp" style="shape=partialRectangle;overflow=hidden;connectable=0;fillColor=none;top=0;left=0;bottom=0;right=0;align=left;spacingLeft=6;" parent="ZG2WCgY98QADGsXBixCX-20" vertex="1">
          <mxGeometry width="240" height="30" as="geometry">
            <mxRectangle width="240" height="30" as="alternateBounds" />
          </mxGeometry>
        </mxCell>
        <mxCell id="ZG2WCgY98QADGsXBixCX-22" style="shape=partialRectangle;collapsible=0;dropTarget=0;pointerEvents=0;fillColor=none;points=[[0,0.5],[1,0.5]];portConstraint=eastwest;top=0;left=0;right=0;bottom=0;" parent="ZG2WCgY98QADGsXBixCX-1" vertex="1">
          <mxGeometry y="310" width="240" height="30" as="geometry" />
        </mxCell>
        <mxCell id="ZG2WCgY98QADGsXBixCX-23" value="updatedAt : timestamp" style="shape=partialRectangle;overflow=hidden;connectable=0;fillColor=none;top=0;left=0;bottom=0;right=0;align=left;spacingLeft=6;" parent="ZG2WCgY98QADGsXBixCX-22" vertex="1">
          <mxGeometry width="240" height="30" as="geometry">
            <mxRectangle width="240" height="30" as="alternateBounds" />
          </mxGeometry>
        </mxCell>
        <mxCell id="-ggtBQ1dRWR95-5K9rOF-10" value="environnement - user" style="shape=table;startSize=30;container=1;collapsible=1;childLayout=tableLayout;fixedRows=1;rowLines=0;fontStyle=1;align=center;resizeLast=1;rounded=1;fillColor=#d5e8d4;strokeColor=#82b366;swimlaneLine=1;swimlaneFillColor=default;" parent="1" vertex="1">
          <mxGeometry x="350" y="520" width="160" height="130" as="geometry" />
        </mxCell>
        <mxCell id="-ggtBQ1dRWR95-5K9rOF-11" value="" style="shape=partialRectangle;collapsible=0;dropTarget=0;pointerEvents=0;fillColor=none;points=[[0,0.5],[1,0.5]];portConstraint=eastwest;top=0;left=0;right=0;bottom=0;" parent="-ggtBQ1dRWR95-5K9rOF-10" vertex="1">
          <mxGeometry y="30" width="160" height="30" as="geometry" />
        </mxCell>
        <mxCell id="-ggtBQ1dRWR95-5K9rOF-12" value="environmentId : int" style="shape=partialRectangle;overflow=hidden;connectable=0;fillColor=none;top=0;left=0;bottom=0;right=0;align=left;spacingLeft=6;" parent="-ggtBQ1dRWR95-5K9rOF-11" vertex="1">
          <mxGeometry width="160" height="30" as="geometry">
            <mxRectangle width="160" height="30" as="alternateBounds" />
          </mxGeometry>
        </mxCell>
        <mxCell id="-ggtBQ1dRWR95-5K9rOF-13" style="shape=partialRectangle;collapsible=0;dropTarget=0;pointerEvents=0;fillColor=none;points=[[0,0.5],[1,0.5]];portConstraint=eastwest;top=0;left=0;right=0;bottom=0;" parent="-ggtBQ1dRWR95-5K9rOF-10" vertex="1">
          <mxGeometry y="60" width="160" height="30" as="geometry" />
        </mxCell>
        <mxCell id="-ggtBQ1dRWR95-5K9rOF-14" value="userId : int" style="shape=partialRectangle;overflow=hidden;connectable=0;fillColor=none;top=0;left=0;bottom=0;right=0;align=left;spacingLeft=6;" parent="-ggtBQ1dRWR95-5K9rOF-13" vertex="1">
          <mxGeometry width="160" height="30" as="geometry">
            <mxRectangle width="160" height="30" as="alternateBounds" />
          </mxGeometry>
        </mxCell>
        <mxCell id="-ggtBQ1dRWR95-5K9rOF-25" style="shape=partialRectangle;collapsible=0;dropTarget=0;pointerEvents=0;fillColor=none;points=[[0,0.5],[1,0.5]];portConstraint=eastwest;top=0;left=0;right=0;bottom=0;" parent="-ggtBQ1dRWR95-5K9rOF-10" vertex="1">
          <mxGeometry y="90" width="160" height="30" as="geometry" />
        </mxCell>
        <mxCell id="-ggtBQ1dRWR95-5K9rOF-26" value="role : varchar" style="shape=partialRectangle;overflow=hidden;connectable=0;fillColor=none;top=0;left=0;bottom=0;right=0;align=left;spacingLeft=6;" parent="-ggtBQ1dRWR95-5K9rOF-25" vertex="1">
          <mxGeometry width="160" height="30" as="geometry">
            <mxRectangle width="160" height="30" as="alternateBounds" />
          </mxGeometry>
        </mxCell>
        <mxCell id="-ggtBQ1dRWR95-5K9rOF-27" value="migrations" style="shape=table;startSize=30;container=1;collapsible=1;childLayout=tableLayout;fixedRows=1;rowLines=0;fontStyle=1;align=center;resizeLast=1;rounded=1;fillColor=#d5e8d4;strokeColor=#82b366;swimlaneLine=1;swimlaneFillColor=default;" parent="1" vertex="1">
          <mxGeometry x="600" y="360" width="220" height="130" as="geometry" />
        </mxCell>
        <mxCell id="-ggtBQ1dRWR95-5K9rOF-28" value="" style="shape=partialRectangle;collapsible=0;dropTarget=0;pointerEvents=0;fillColor=none;points=[[0,0.5],[1,0.5]];portConstraint=eastwest;top=0;left=0;right=0;bottom=0;" parent="-ggtBQ1dRWR95-5K9rOF-27" vertex="1">
          <mxGeometry y="30" width="220" height="30" as="geometry" />
        </mxCell>
        <mxCell id="-ggtBQ1dRWR95-5K9rOF-29" value="id : int" style="shape=partialRectangle;overflow=hidden;connectable=0;fillColor=none;top=0;left=0;bottom=0;right=0;align=left;spacingLeft=6;" parent="-ggtBQ1dRWR95-5K9rOF-28" vertex="1">
          <mxGeometry width="220" height="30" as="geometry">
            <mxRectangle width="220" height="30" as="alternateBounds" />
          </mxGeometry>
        </mxCell>
        <mxCell id="-ggtBQ1dRWR95-5K9rOF-30" style="shape=partialRectangle;collapsible=0;dropTarget=0;pointerEvents=0;fillColor=none;points=[[0,0.5],[1,0.5]];portConstraint=eastwest;top=0;left=0;right=0;bottom=0;" parent="-ggtBQ1dRWR95-5K9rOF-27" vertex="1">
          <mxGeometry y="60" width="220" height="30" as="geometry" />
        </mxCell>
        <mxCell id="-ggtBQ1dRWR95-5K9rOF-31" value="name : varchar" style="shape=partialRectangle;overflow=hidden;connectable=0;fillColor=none;top=0;left=0;bottom=0;right=0;align=left;spacingLeft=6;" parent="-ggtBQ1dRWR95-5K9rOF-30" vertex="1">
          <mxGeometry width="220" height="30" as="geometry">
            <mxRectangle width="220" height="30" as="alternateBounds" />
          </mxGeometry>
        </mxCell>
        <mxCell id="-ggtBQ1dRWR95-5K9rOF-32" style="shape=partialRectangle;collapsible=0;dropTarget=0;pointerEvents=0;fillColor=none;points=[[0,0.5],[1,0.5]];portConstraint=eastwest;top=0;left=0;right=0;bottom=0;" parent="-ggtBQ1dRWR95-5K9rOF-27" vertex="1">
          <mxGeometry y="90" width="220" height="30" as="geometry" />
        </mxCell>
        <mxCell id="-ggtBQ1dRWR95-5K9rOF-33" value="timstamp : timestamp" style="shape=partialRectangle;overflow=hidden;connectable=0;fillColor=none;top=0;left=0;bottom=0;right=0;align=left;spacingLeft=6;" parent="-ggtBQ1dRWR95-5K9rOF-32" vertex="1">
          <mxGeometry width="220" height="30" as="geometry">
            <mxRectangle width="220" height="30" as="alternateBounds" />
          </mxGeometry>
        </mxCell>
        <mxCell id="-ggtBQ1dRWR95-5K9rOF-42" style="edgeStyle=orthogonalEdgeStyle;rounded=0;orthogonalLoop=1;jettySize=auto;html=1;dashed=1;endArrow=none;endFill=0;" parent="1" source="WS94sjK1EqQb1p9_KVSN-11" target="XOmV6FHvG9RzrbjpGp2Q-32" edge="1">
          <mxGeometry relative="1" as="geometry" />
        </mxCell>
        <mxCell id="BHudmAXcRPZ-4kMaB8vt-1" value="tags" style="shape=table;startSize=30;container=1;collapsible=1;childLayout=tableLayout;fixedRows=1;rowLines=0;fontStyle=1;align=center;resizeLast=1;rounded=1;fillColor=#d5e8d4;strokeColor=#82b366;swimlaneLine=1;swimlaneFillColor=default;" vertex="1" parent="1">
          <mxGeometry x="70" y="90" width="220" height="160" as="geometry" />
        </mxCell>
        <mxCell id="BHudmAXcRPZ-4kMaB8vt-2" value="" style="shape=partialRectangle;collapsible=0;dropTarget=0;pointerEvents=0;fillColor=none;points=[[0,0.5],[1,0.5]];portConstraint=eastwest;top=0;left=0;right=0;bottom=0;" vertex="1" parent="BHudmAXcRPZ-4kMaB8vt-1">
          <mxGeometry y="30" width="220" height="30" as="geometry" />
        </mxCell>
        <mxCell id="BHudmAXcRPZ-4kMaB8vt-3" value="id : int" style="shape=partialRectangle;overflow=hidden;connectable=0;fillColor=none;top=0;left=0;bottom=0;right=0;align=left;spacingLeft=6;" vertex="1" parent="BHudmAXcRPZ-4kMaB8vt-2">
          <mxGeometry width="220" height="30" as="geometry">
            <mxRectangle width="220" height="30" as="alternateBounds" />
          </mxGeometry>
        </mxCell>
        <mxCell id="BHudmAXcRPZ-4kMaB8vt-4" style="shape=partialRectangle;collapsible=0;dropTarget=0;pointerEvents=0;fillColor=none;points=[[0,0.5],[1,0.5]];portConstraint=eastwest;top=0;left=0;right=0;bottom=0;" vertex="1" parent="BHudmAXcRPZ-4kMaB8vt-1">
          <mxGeometry y="60" width="220" height="30" as="geometry" />
        </mxCell>
        <mxCell id="BHudmAXcRPZ-4kMaB8vt-5" value="name : varchar" style="shape=partialRectangle;overflow=hidden;connectable=0;fillColor=none;top=0;left=0;bottom=0;right=0;align=left;spacingLeft=6;" vertex="1" parent="BHudmAXcRPZ-4kMaB8vt-4">
          <mxGeometry width="220" height="30" as="geometry">
            <mxRectangle width="220" height="30" as="alternateBounds" />
          </mxGeometry>
        </mxCell>
        <mxCell id="BHudmAXcRPZ-4kMaB8vt-6" style="shape=partialRectangle;collapsible=0;dropTarget=0;pointerEvents=0;fillColor=none;points=[[0,0.5],[1,0.5]];portConstraint=eastwest;top=0;left=0;right=0;bottom=0;" vertex="1" parent="BHudmAXcRPZ-4kMaB8vt-1">
          <mxGeometry y="90" width="220" height="30" as="geometry" />
        </mxCell>
        <mxCell id="BHudmAXcRPZ-4kMaB8vt-7" value="description : varchar" style="shape=partialRectangle;overflow=hidden;connectable=0;fillColor=none;top=0;left=0;bottom=0;right=0;align=left;spacingLeft=6;" vertex="1" parent="BHudmAXcRPZ-4kMaB8vt-6">
          <mxGeometry width="220" height="30" as="geometry">
            <mxRectangle width="220" height="30" as="alternateBounds" />
          </mxGeometry>
        </mxCell>
        <mxCell id="BHudmAXcRPZ-4kMaB8vt-14" style="shape=partialRectangle;collapsible=0;dropTarget=0;pointerEvents=0;fillColor=none;points=[[0,0.5],[1,0.5]];portConstraint=eastwest;top=0;left=0;right=0;bottom=0;" vertex="1" parent="BHudmAXcRPZ-4kMaB8vt-1">
          <mxGeometry y="120" width="220" height="30" as="geometry" />
        </mxCell>
        <mxCell id="BHudmAXcRPZ-4kMaB8vt-15" value="environmentId : int" style="shape=partialRectangle;overflow=hidden;connectable=0;fillColor=none;top=0;left=0;bottom=0;right=0;align=left;spacingLeft=6;" vertex="1" parent="BHudmAXcRPZ-4kMaB8vt-14">
          <mxGeometry width="220" height="30" as="geometry">
            <mxRectangle width="220" height="30" as="alternateBounds" />
          </mxGeometry>
        </mxCell>
        <mxCell id="BHudmAXcRPZ-4kMaB8vt-17" value="tag - transcript" style="shape=table;startSize=30;container=1;collapsible=1;childLayout=tableLayout;fixedRows=1;rowLines=0;fontStyle=1;align=center;resizeLast=1;rounded=1;fillColor=#d5e8d4;strokeColor=#82b366;swimlaneLine=1;swimlaneFillColor=default;" vertex="1" parent="1">
          <mxGeometry x="340" y="90" width="220" height="100" as="geometry" />
        </mxCell>
        <mxCell id="BHudmAXcRPZ-4kMaB8vt-18" value="" style="shape=partialRectangle;collapsible=0;dropTarget=0;pointerEvents=0;fillColor=none;points=[[0,0.5],[1,0.5]];portConstraint=eastwest;top=0;left=0;right=0;bottom=0;" vertex="1" parent="BHudmAXcRPZ-4kMaB8vt-17">
          <mxGeometry y="30" width="220" height="30" as="geometry" />
        </mxCell>
        <mxCell id="BHudmAXcRPZ-4kMaB8vt-19" value="tagId : int" style="shape=partialRectangle;overflow=hidden;connectable=0;fillColor=none;top=0;left=0;bottom=0;right=0;align=left;spacingLeft=6;" vertex="1" parent="BHudmAXcRPZ-4kMaB8vt-18">
          <mxGeometry width="220" height="30" as="geometry">
            <mxRectangle width="220" height="30" as="alternateBounds" />
          </mxGeometry>
        </mxCell>
        <mxCell id="BHudmAXcRPZ-4kMaB8vt-20" style="shape=partialRectangle;collapsible=0;dropTarget=0;pointerEvents=0;fillColor=none;points=[[0,0.5],[1,0.5]];portConstraint=eastwest;top=0;left=0;right=0;bottom=0;" vertex="1" parent="BHudmAXcRPZ-4kMaB8vt-17">
          <mxGeometry y="60" width="220" height="30" as="geometry" />
        </mxCell>
        <mxCell id="BHudmAXcRPZ-4kMaB8vt-21" value="transcriptId : int" style="shape=partialRectangle;overflow=hidden;connectable=0;fillColor=none;top=0;left=0;bottom=0;right=0;align=left;spacingLeft=6;" vertex="1" parent="BHudmAXcRPZ-4kMaB8vt-20">
          <mxGeometry width="220" height="30" as="geometry">
            <mxRectangle width="220" height="30" as="alternateBounds" />
          </mxGeometry>
        </mxCell>
        <mxCell id="BHudmAXcRPZ-4kMaB8vt-28" style="edgeStyle=orthogonalEdgeStyle;rounded=0;orthogonalLoop=1;jettySize=auto;html=1;dashed=1;endArrow=none;endFill=0;" edge="1" parent="1" source="BHudmAXcRPZ-4kMaB8vt-2" target="BHudmAXcRPZ-4kMaB8vt-18">
          <mxGeometry relative="1" as="geometry" />
        </mxCell>
        <mxCell id="BHudmAXcRPZ-4kMaB8vt-29" style="edgeStyle=orthogonalEdgeStyle;rounded=0;orthogonalLoop=1;jettySize=auto;html=1;dashed=1;endArrow=none;endFill=0;" edge="1" parent="1" source="BHudmAXcRPZ-4kMaB8vt-20" target="XOmV6FHvG9RzrbjpGp2Q-10">
          <mxGeometry relative="1" as="geometry" />
        </mxCell>
        <mxCell id="BHudmAXcRPZ-4kMaB8vt-30" style="edgeStyle=orthogonalEdgeStyle;rounded=0;orthogonalLoop=1;jettySize=auto;html=1;dashed=1;endArrow=none;endFill=0;" edge="1" parent="1" source="BHudmAXcRPZ-4kMaB8vt-14" target="XOmV6FHvG9RzrbjpGp2Q-32">
          <mxGeometry relative="1" as="geometry">
            <Array as="points">
              <mxPoint x="320" y="225" />
              <mxPoint x="320" y="255" />
            </Array>
          </mxGeometry>
        </mxCell>
        <mxCell id="BHudmAXcRPZ-4kMaB8vt-31" style="edgeStyle=orthogonalEdgeStyle;rounded=0;orthogonalLoop=1;jettySize=auto;html=1;dashed=1;endArrow=none;endFill=0;" edge="1" parent="1" source="AtBy07pKtBP1QmbtxYR5-21" target="XOmV6FHvG9RzrbjpGp2Q-32">
          <mxGeometry relative="1" as="geometry">
            <Array as="points">
              <mxPoint x="320" y="405" />
              <mxPoint x="320" y="255" />
            </Array>
          </mxGeometry>
        </mxCell>
        <mxCell id="BHudmAXcRPZ-4kMaB8vt-32" style="edgeStyle=orthogonalEdgeStyle;rounded=0;orthogonalLoop=1;jettySize=auto;html=1;dashed=1;endArrow=none;endFill=0;" edge="1" parent="1" source="-ggtBQ1dRWR95-5K9rOF-11" target="XOmV6FHvG9RzrbjpGp2Q-32">
          <mxGeometry relative="1" as="geometry">
            <Array as="points">
              <mxPoint x="320" y="565" />
              <mxPoint x="320" y="255" />
            </Array>
          </mxGeometry>
        </mxCell>
        <mxCell id="BHudmAXcRPZ-4kMaB8vt-33" style="edgeStyle=orthogonalEdgeStyle;rounded=0;orthogonalLoop=1;jettySize=auto;html=1;dashed=1;endArrow=none;endFill=0;" edge="1" parent="1" source="-ggtBQ1dRWR95-5K9rOF-13" target="C-vyLk0tnHw3VtMMgP7b-27">
          <mxGeometry relative="1" as="geometry">
            <Array as="points">
              <mxPoint x="560" y="595" />
              <mxPoint x="560" y="555" />
            </Array>
          </mxGeometry>
        </mxCell>
        <mxCell id="BHudmAXcRPZ-4kMaB8vt-34" style="edgeStyle=orthogonalEdgeStyle;rounded=0;orthogonalLoop=1;jettySize=auto;html=1;dashed=1;endArrow=none;endFill=0;" edge="1" parent="1" source="ZG2WCgY98QADGsXBixCX-6" target="C-vyLk0tnHw3VtMMgP7b-27">
          <mxGeometry relative="1" as="geometry">
            <Array as="points">
              <mxPoint x="10" y="435" />
              <mxPoint x="10" y="710" />
              <mxPoint x="560" y="710" />
              <mxPoint x="560" y="555" />
            </Array>
          </mxGeometry>
        </mxCell>
      </root>
    </mxGraphModel>
  </diagram>
</mxfile>
